ply
format ascii 1.0
comment VCGLIB generated
element vertex 784
property float x
property float y
property float z
property float nx
property float ny
property float nz
property int flags
element face 0
property list uchar int vertex_indices
end_header
2.33348 -3.15178 1.39708 0.880216 -0.32755 0.343409 0 
1.23384 -5.97221 -1.77672 -0.0316645 0.146342 -0.988727 0 
2.09743 -5.30586 -1.77538 0.00246658 -0.00627349 -0.999977 0 
1.48759 -4.22307 -1.77989 0.00518096 -0.00114414 -0.999986 0 
0.07338 -5.75566 0.952988 -0.921112 -0.389295 0.00156865 0 
-0.153458 -4.98686 -0.271866 -0.908235 -0.418328 0.0104884 0 
0.453384 -1.97896 -1.78038 -0.00701018 -0.00122211 -0.999975 0 
1.76869 -5.97282 -1.77495 -0.235514 0.170352 -0.956825 0 
-0.117874 -5.05519 1.84593 -0.947335 -0.319234 -0.0254205 0 
1.15587 -5.36281 -1.77837 -0.0415058 -0.161549 -0.985991 0 
0.830002 -3.22261 -1.78249 -0.00493341 0.00180557 -0.999986 0 
0.145218 -5.93297 0.699783 -0.919469 -0.393157 -0.00230555 0 
0.170273 -5.99379 1.34059 -0.920247 -0.391303 0.00518626 0 
0.642136 -3.34886 -1.77943 0.00218357 0.00542011 -0.999983 0 
0.209122 -6.06303 3.01976 -0.916784 -0.399245 0.010515 0 
2.27617 -2.91896 0.223892 0.94988 0.312599 -0.00318667 0 
0.189926 -6.03136 -0.323593 -0.912958 -0.408053 -0.000412256 0 
0.773453 -6.2675 -1.77763 0.000475051 -0.00457863 -0.999989 0 
2.0273 -3.38621 -0.899155 0.825995 -0.182536 -0.533303 0 
2.05525 -3.62297 2.045 0.669111 -0.665689 -0.330379 0 
1.4091 -1.399 -1.78087 -0.00574914 -0.00103888 -0.999983 0 
0.217575 -1.77806 -1.77785 0.00355831 -0.00327405 -0.999988 0 
-0.016251 -2.81554 -1.78261 0.00455324 -0.00259586 -0.999986 0 
2.19106 -3.10393 1.68422 0.945096 -0.22554 -0.236484 0 
1.53584 -3.93407 -1.78145 0.299833 0.138988 -0.943813 0 
2.22032 -3.52714 0.585312 0.965398 -0.256636 -0.0463211 0 
1.98296 -2.15614 -1.69847 0.714955 0.460327 -0.526249 0 
2.00468 -3.42345 -1.41011 0.70762 -0.536234 -0.460138 0 
2.17995 -2.6852 -0.22966 0.924235 0.381771 0.00640114 0 
2.08427 -4.31862 1.13701 0.974712 0.223464 0.0005088 0 
0.498062 -5.93562 -1.77919 -0.00122195 -0.00200038 -0.999997 0 
2.28941 -2.95033 -0.014175 0.970379 0.241246 0.0128568 0 
2.09871 -2.49358 0.868912 0.926199 0.37698 0.00647512 0 
1.67757 -3.48079 -1.65999 0.786474 -0.275292 -0.552877 0 
1.33174 -5.56953 -1.77751 -0.102098 -0.0934115 -0.990379 0 
0.023697 -4.70812 -1.78273 -0.340858 -0.183662 -0.922 0 
2.00594 -4.43162 -1.50008 0.940237 0.149189 -0.306099 0 
1.20647 -3.03038 -1.78175 -0.000666151 0.00550916 -0.999985 0 
2.1653 -3.5815 1.56178 0.945813 -0.265933 0.186326 0 
2.11482 -2.53761 0.614151 0.927309 0.374296 0.000569856 0 
0.720535 -5.91417 -1.77946 0.00276391 -0.0042204 -0.999987 0 
2.03777 -3.99016 1.26585 0.995231 -0.0290819 0.0931148 0 
1.88591 -1.96922 0.343979 0.925928 0.377498 0.0123576 0 
1.95695 -3.38753 -1.25615 0.915162 -0.399165 0.05609 0 
1.81099 -3.05458 -1.54274 0.503307 -0.510829 -0.696948 0 
1.87291 -3.52089 -1.40651 0.709646 -0.504906 -0.491399 0 
1.47746 -5.2567 -1.77986 0.0646327 -0.131088 -0.989262 0 
1.29988 -5.2777 -1.77687 0.00129319 -0.00588318 -0.999982 0 
0.106888 -5.8387 1.66881 -0.92025 -0.391311 0.00410238 0 
2.40932 -3.25057 0.394089 0.975806 -0.166997 -0.141121 0 
2.2408 -3.51323 0.41954 0.924175 -0.304371 -0.230777 0 
1.84853 -1.88753 1.01646 0.853935 0.518698 0.0418009 0 
0.96254 -4.29762 -1.77681 0.0033807 -0.00188963 -0.999992 0 
2.25343 -2.87971 1.53072 0.979957 0.191464 0.0550173 0 
0.104874 -5.83501 2.60722 -0.916993 -0.398809 0.00863783 0 
1.99867 -2.97881 -1.50166 0.789187 -0.583887 -0.190422 0 
-0.064529 -2.47649 -1.78505 0.00168998 -0.000728346 -0.999998 0 
0.089279 -5.79265 2.78764 -0.917167 -0.398375 0.010056 0 
1.58223 -3.35966 -1.782 0.189717 -0.0219785 -0.981593 0 
1.91606 -2.03331 -0.043045 0.924678 0.380645 0.00891646 0 
2.0052 -2.34828 -1.78032 0.742746 0.174302 -0.646488 0 
2.33589 -3.06957 0.297714 0.989644 0.127152 -0.0666193 0 
2.10423 -2.45787 -1.50548 0.91567 0.379778 -0.131596 0 
2.14723 -3.25655 1.74477 0.672986 -0.727808 -0.131856 0 
2.02791 -2.30067 -0.512131 0.927919 0.372663 0.00943397 0 
-0.064682 -5.1819 -0.282547 -0.910983 -0.412389 0.00670566 0 
0.100052 -5.3626 -1.1588 -0.903305 -0.408569 -0.130812 0 
1.97099 -4.04759 0.933578 0.995424 0.0854376 -0.0427994 0 
2.17424 -2.68379 1.29594 0.925309 0.379212 0.000547302 0 
2.00584 -3.8589 0.356949 0.928796 -0.36576 0.0596534 0 
2.00316 -4.80476 -1.77815 0.00362813 -0.000783607 -0.999993 0 
2.33431 -3.22301 -0.654678 0.920742 -0.281501 -0.27017 0 
1.34703 -1.93233 -1.78011 -0.00682516 0.00183856 -0.999975 0 
-0.037674 -4.89629 -1.494 -0.857016 -0.43407 -0.277683 0 
0.313065 -2.46037 -1.78358 0.00373226 0.00267045 -0.99999 0 
2.22093 -3.72523 2.1205 0.593565 -0.644036 -0.482596 0 
2.2357 -3.24608 -0.031601 0.887741 -0.444796 -0.118627 0 
1.95836 -2.11342 -1.11635 0.926745 0.375318 0.0167718 0 
1.39299 -4.60951 -1.78093 0.00214082 -0.00198975 -0.999996 0 
0.218369 -1.9413 -1.77782 0.00356573 0.000445351 -0.999994 0 
2.4323 -3.29744 0.011673 0.89605 -0.433553 0.0955303 0 
2.02831 -3.43913 -1.07933 0.942433 -0.239082 -0.233793 0 
1.90605 -3.76555 1.88298 0.875507 -0.444244 -0.190089 0 
1.83156 -1.82915 -0.163193 0.924056 0.382144 0.00925771 0 
1.81132 -3.80443 -1.07173 0.982496 0.152041 0.107634 0 
1.46706 -6.1407 -1.77654 0.00220582 0.00167486 -0.999996 0 
0.076584 -5.78285 -0.426193 -0.915288 -0.402798 0.00101265 0 
1.95924 -4.03487 1.50499 0.939855 0.339074 0.041258 0 
0.125015 -2.41975 -1.78276 0.00687811 0.00252404 -0.999973 0 
0.023941 -5.17949 -1.34728 -0.887579 -0.405785 -0.218041 0 
2.66219 -5.87599 -1.77345 0.00436568 -0.00235775 -0.999988 0 
1.95894 -2.16179 1.27031 0.924495 0.381098 0.00856179 0 
1.57427 -2.1111 -1.78111 -0.00851853 -0.0103513 -0.99991 0 
1.90657 -3.66112 -0.832565 0.872519 -0.226186 -0.43307 0 
2.24522 -2.85613 0.672318 0.925995 0.377526 0.00281274 0 
1.3 -3.35805 -1.78413 0.000980863 -0.00235179 -0.999997 0 
0.876938 -3.895 -1.78355 0.00265083 -0.00205818 -0.999994 0 
1.06328 -4.12779 -1.78184 0.00118898 -0.00592037 -0.999982 0 
2.33546 -3.06819 0.094681 0.990185 0.0690299 0.121523 0 
2.13542 -2.91289 -1.44148 0.71749 -0.664257 -0.209693 0 
1.59184 -5.3893 -1.59611 -0.776747 0.617198 -0.125425 0 
1.53526 -2.8799 -1.77879 0.000751166 0.00500547 -0.999987 0 
-0.140762 -4.99013 1.59889 -0.926127 -0.376117 -0.0287343 0 
1.94774 -3.23961 -1.03865 0.938447 -0.235571 -0.252634 0 
-0.160782 -4.98308 -0.682846 -0.915834 -0.373974 -0.146256 0 
1.37581 -2.8308 -1.78078 0.00240413 0.00392522 -0.999989 0 
2.29561 -2.96285 -0.176743 0.946051 0.323564 -0.0171513 0 
2.28502 -2.92198 -0.64827 0.966522 0.251619 -0.0502383 0 
2.16853 -2.63136 -1.16356 0.923768 0.382814 0.0102959 0 
2.21269 -2.72591 -1.41808 0.993976 0.103213 0.0368574 0 
2.23912 -3.1548 1.53655 0.910496 -0.388236 0.142375 0 
2.08733 -2.44121 -0.624832 0.92661 0.375907 0.00942311 0 
2.19029 -3.54344 1.82173 0.99907 0.0111214 0.0416479 0 
1.44087 -1.55888 -1.78014 -0.00556194 0.000818262 -0.999984 0 
0.966568 -1.49828 -1.77693 0.00468786 0.00202833 -0.999987 0 
1.90959 -2.97691 -1.77736 0.327789 -0.412478 -0.849951 0 
0.171951 -5.98796 0.469315 -0.919221 -0.393712 -0.00477546 0 
0.642288 -4.60844 -1.7834 0.00142605 -0.00290002 -0.999995 0 
-0.018661 -5.03798 -1.22111 -0.91807 -0.383084 -0.101952 0 
0.454239 -3.27397 -1.78157 0.00728953 0.00508371 -0.999961 0 
2.19273 -3.53282 0.004562 0.961977 -0.262477 0.0755385 0 
0.026657 -5.65685 0.182877 -0.973521 -0.228569 -0.00357627 0 
2.21825 -3.24895 1.22633 0.801506 -0.580783 0.142406 0 
1.59007 -5.8705 -1.54262 0.868741 0.452928 0.20036 0 
1.66667 -3.10347 -1.78163 0.276442 -0.0537199 -0.959528 0 
1.62566 -4.3152 -1.77977 0.00399093 -0.00187761 -0.99999 0 
0.093735 -5.8112 0.798569 -0.9192 -0.393786 -0.00197149 0 
0.498215 -4.46785 -1.7838 0.000712274 -0.00249795 -0.999997 0 
1.99934 -3.81596 0.524277 0.854157 -0.519491 -0.0233609 0 
2.23491 -3.74532 -0.20253 0.729865 -0.645414 0.225249 0 
2.14507 -3.3788 1.29518 0.94189 -0.303155 0.144707 0 
2.05888 -2.39513 0.379654 0.925747 0.378118 0.00431409 0 
-0.096634 -4.93883 -1.08037 -0.900716 -0.417277 -0.120791 0 
1.91524 -2.02064 -0.51503 0.924829 0.380321 0.00682764 0 
2.2422 -2.85451 1.26594 0.935801 0.352342 0.0115174 0 
-0.197983 -4.99281 1.01237 -0.860145 -0.509634 0.0205716 0 
1.83214 -3.80818 -0.904007 0.9543 0.155034 -0.255493 0 
0.40715 -3.04002 -1.78072 0.00306372 0.00290408 -0.999991 0 
1.73592 -1.72755 -1.78078 0.224086 0.043876 -0.973581 0 
-0.066483 -5.17882 2.69185 -0.968149 -0.250368 0.00200972 0 
2.01479 -3.76601 0.00444 0.874567 -0.456984 0.162168 0 
2.04884 -3.26897 -1.45503 0.686045 -0.235413 -0.688421 0 
0.165939 -5.98119 0.857864 -0.920225 -0.391373 -0.00375578 0 
2.33556 -3.22819 0.200851 0.989562 -0.132694 0.0562153 0 
0.075058 -5.75886 2.45241 -0.919297 -0.393564 -0.000467345 0 
0.018295 -5.35933 1.575 -0.966967 -0.247894 -0.0593536 0 
2.05608 -3.98409 1.09877 0.990743 -0.133509 -0.0245555 0 
1.81572 -2.53432 -1.78047 0.128177 -0.0125922 -0.991671 0 
0.248825 -5.56657 -1.7816 -0.501259 0.0283082 -0.864834 0 
-0.018356 -5.27406 0.078049 -0.914673 -0.404073 0.009945 0 
2.11662 -4.38246 2.26442 0.95471 0.295722 -0.0328221 0 
2.05421 -3.66832 1.47749 0.714205 -0.646451 0.268351 0 
2.13823 -6.07002 -1.77556 0.00124888 0.00172825 -0.999998 0 
2.03737 -2.35204 0.947495 0.925891 0.377725 0.00708063 0 
0.014206 -5.38756 -0.728622 -0.977437 -0.185363 -0.101276 0 
-0.063522 -1.92317 -1.78102 0.00402509 9.85898e-005 -0.999992 0 
0.144974 -5.92543 -1.59993 -0.864606 0.0826307 -0.495609 0 
0.498245 -4.76357 -1.78139 0.000245872 -0.0050674 -0.999987 0 
-0.018082 -5.29005 -0.089371 -0.962367 -0.271752 -0.000490773 0 
1.20067 -1.40083 -1.778 -0.004044 0.000938777 -0.999991 0 
2.23259 -2.83409 1.70879 0.980268 0.180848 0.0798028 0 
0.358536 -2.20354 -1.77785 -0.00300117 0.0074653 -0.999968 0 
0.763351 -6.64687 -1.77562 0.00145098 -0.00565049 -0.999983 0 
2.34022 -3.06547 -0.847733 0.917254 -0.371972 -0.142413 0 
1.25407 -4.69658 -1.77956 0.00291138 -0.00169872 -0.999994 0 
1.53313 -1.92754 -1.78172 -0.00771188 -0.00433108 -0.999961 0 
1.61085 -4.80672 -1.77943 0.00208311 -0.000578247 -0.999998 0 
2.12257 -2.53883 -0.420059 0.927284 0.374187 0.011364 0 
0.208023 -6.06999 -1.13829 -0.917046 -0.398779 -0.00120989 0 
1.93657 -3.85536 1.37193 0.876834 -0.165487 0.451415 0 
2.09892 -3.46007 1.94945 0.953915 -0.279715 -0.108656 0 
1.21895 -2.78538 -1.78108 0.00205316 0.00203166 -0.999996 0 
1.46193 -5.64308 -0.856735 0.901134 0.428618 0.0651525 0 
1.94588 -3.62248 1.59312 0.859569 -0.467088 0.207293 0 
2.24144 -3.24681 0.943069 0.972396 -0.22834 0.0480253 0 
-0.124863 -4.90447 -0.919632 -0.910303 -0.374556 -0.176227 0 
1.92259 -4.13533 -1.46477 0.875123 0.329876 -0.354036 0 
0.780624 -3.64772 -1.7834 -0.00152695 0.00570587 -0.999983 0 
-0.106125 -5.08534 -0.090225 -0.916227 -0.400537 0.00994145 0 
0.018784 -5.34432 1.31706 -0.962921 -0.269079 0.0194742 0 
1.34398 -5.57179 -0.455002 0.0539217 0.998528 -0.00585573 0 
0.130447 -5.88975 0.229843 -0.916959 -0.398915 0.00730854 0 
0.828934 -3.0269 -1.7798 -0.00100038 0.00143444 -0.999998 0 
1.93459 -2.08879 0.241592 0.926129 0.377048 0.0109313 0 
2.05287 -3.99132 0.527206 0.996006 0.0877245 0.0166155 0 
0.068314 -5.369 -0.923264 -0.956925 -0.217095 -0.192782 0 
2.13829 -2.53575 -1.67329 0.885237 0.236744 -0.400384 0 
2.19276 -3.52971 -0.705276 0.875847 -0.105191 -0.470985 0 
2.33354 -3.23311 0.703232 0.965136 -0.248369 -0.0826107 0 
0.641068 -2.4102 -1.78047 0.00327486 0.000670209 -0.999994 0 
2.3044 -2.96083 -0.993576 0.998467 -0.055193 -0.00410935 0 
2.05211 -3.99406 -0.254074 0.990695 -0.0791466 -0.110724 0 
0.681442 -6.50481 -1.77675 0.00287152 -0.00557165 -0.99998 0 
0.905807 -5.91026 -1.78017 0.00460704 -0.00238352 -0.999987 0 
2.1823 -3.7123 -0.355148 0.726416 -0.676126 -0.123179 0 
1.73329 -3.95558 -1.77925 0.540884 0.223755 -0.810789 0 
1.6082 -5.93593 -1.77473 -0.0991423 0.0765283 -0.992126 0 
1.9828 -4.23869 -1.29894 0.945467 0.287526 -0.153041 0 
1.01848 -1.92891 -1.77791 0.009186 -0.00218547 -0.999955 0 
1.79909 -3.66606 -1.2704 0.976612 0.0550114 -0.207851 0 
0.369583 -6.8022 -1.77696 -0.179874 -0.217496 -0.959344 0 
0.406357 -3.99504 -1.78245 0.00247523 0.000490939 -0.999997 0 
1.72356 -1.7534 0.995682 0.827588 0.559423 0.0463039 0 
0.044815 -5.70055 0.6577 -0.969933 -0.243345 -0.00367606 0 
1.24425 -2.06264 -1.77693 -0.00404594 2.70307e-005 -0.999992 0 
0.189987 -6.03047 2.02214 -0.91803 -0.396506 0.00209718 0 
-0.201797 -5.00749 0.544296 -0.866368 -0.49886 -0.0233528 0 
2.28801 -5.19566 -1.77675 0.00245762 -0.00474427 -0.999986 0 
1.06053 -3.54234 -1.78261 -0.000918736 0.000158087 -1 0 
-0.064041 -5.18407 -0.609055 -0.916421 -0.399216 -0.0282643 0 
2.2148 -2.72792 -1.58202 0.998018 0.0572855 -0.026046 0 
1.9366 -2.06633 -0.843918 0.925297 0.379133 0.00915764 0 
2.24876 -2.86708 1.07295 0.926683 0.375824 0.00398096 0 
1.9792 -2.20363 0.479507 0.924892 0.380229 0.00107678 0 
2.10536 -2.47786 -0.986832 0.925206 0.379422 0.00580162 0 
0.076187 -5.76411 1.94258 -0.920869 -0.389867 0.00206832 0 
2.21153 -2.73564 -0.938004 0.945172 0.326217 -0.0152712 0 
0.035202 -5.66246 2.87758 -0.9551 -0.293652 0.0394055 0 
2.09853 -4.3336 0.105179 0.977077 0.21239 -0.0145405 0 
2.02397 -2.30251 0.17012 0.926831 0.375343 0.0101086 0 
0.485611 -2.45998 -1.78404 3.62269e-005 0.0041092 -0.999992 0 
-0.082199 -5.13277 0.247269 -0.89334 -0.448268 -0.0316256 0 
1.101 -5.60799 -1.77943 0.0182895 -0.0347847 -0.999227 0 
-0.173965 -4.7068 -1.14595 -0.917729 -0.373168 -0.136086 0 
0.202133 -6.05839 -0.933395 -0.917335 -0.398111 -0.00171617 0 
2.38002 -3.23115 1.26213 0.85843 -0.382266 0.342009 0 
2.00432 -3.85851 0.85643 0.826639 -0.553652 -0.100684 0 
1.911 -4.67015 -1.78026 0.00261669 0.00116519 -0.999996 0 
0.114761 -5.85536 0.390121 -0.917653 -0.397383 -0.000668623 0 
0.126633 -5.89165 -0.261642 -0.914222 -0.405206 0.00233975 0 
1.43788 -5.0818 -1.78007 0.00121697 -0.0042416 -0.99999 0 
0.216934 -3.6653 -1.78233 0.00446378 0.000830932 -0.99999 0 
0.783188 -4.23476 -1.78365 0.00560437 0.000492098 -0.999984 0 
2.15056 -5.10036 -1.77812 0.0024415 -0.00458475 -0.999987 0 
0.187027 -6.03185 1.05605 -0.923011 -0.384773 -0.00116154 0 
2.08458 -4.29295 -0.357956 0.95424 0.297666 -0.0286668 0 
2.14827 -2.61235 0.375076 0.925677 0.378242 0.007384 0 
0.097519 -2.05153 -1.78053 0.00697398 0.00337833 -0.99997 0 
2.08891 -2.82277 -1.7827 0.326973 -0.086881 -0.941032 0 
-0.143997 -4.65514 -1.49794 -0.87612 -0.40005 -0.269024 0 
1.42036 -5.83507 -1.77657 0.128917 -0.0578105 -0.989969 0 
1.01405 -4.47743 -1.78139 0.00290802 -0.000307141 -0.999996 0 
1.99968 -3.62187 1.83769 0.756787 -0.606479 -0.243837 0 
1.97926 -6.11882 -1.77446 0.00252358 -0.000527552 -0.999997 0 
2.27815 -2.91386 -0.466629 0.94678 0.320845 -0.0258142 0 
-0.018387 -5.27547 2.19969 -0.964758 -0.262963 0.00965475 0 
2.14842 -2.63094 1.74623 0.966688 0.254349 -0.0286706 0 
1.74501 -3.6729 -0.937485 0.991502 -0.0126855 -0.129474 0 
0.14827 -5.93764 -0.702621 -0.916087 -0.400954 -0.0045759 0 
1.82371 -1.82338 0.477341 0.92485 0.380126 0.0125562 0 
0.015884 -5.3585 0.581985 -0.978546 -0.205894 0.00747021 0 
2.04726 -4.38713 -1.26613 0.887776 0.440572 -0.133228 0 
1.88243 -1.92491 -1.08977 0.926767 0.375174 0.0186452 0 
0.781448 -4.05238 -1.78233 0.00695647 -0.00826328 -0.999942 0 
0.075638 -5.77937 -0.001144 -0.915469 -0.402338 0.00635911 0 
0.875992 -2.21285 -1.78078 0.00538282 0.00080584 -0.999985 0 
2.09788 -3.69908 0.665878 0.872177 -0.486082 0.0550563 0 
0.905716 -6.45488 -1.77626 0.00101669 -0.00413627 -0.999991 0 
1.34108 -4.14497 -1.78264 0.00309302 -0.00213992 -0.999993 0 
0.93602 -6.2874 -1.77776 0.00112615 -0.00372768 -0.999992 0 
0.918655 -2.39287 -1.78157 0.00126809 0.00200641 -0.999997 0 
0.254074 -6.59764 -1.77654 -0.249994 -0.156634 -0.955494 0 
0.376602 -5.82347 -1.78026 -0.181687 -0.135627 -0.973958 0 
0.59288 -3.57759 -1.78233 0.00235795 0.00512445 -0.999984 0 
-0.102371 -5.08525 2.19609 -0.916977 -0.398939 0.000859138 0 
2.6386 -5.68388 -1.77336 0.00347838 -0.00215138 -0.999992 0 
-0.149918 -4.98711 0.03212 -0.911337 -0.411596 0.00733524 0 
-0.067307 -3.65343 -1.78539 0.0021373 -0.00192574 -0.999996 0 
0.336624 -5.98433 -1.77956 -0.432482 0.0129914 -0.901549 0 
2.19405 -3.65715 0.122055 0.879525 -0.472944 -0.0525431 0 
0.210678 -6.07411 2.45177 -0.914984 -0.40346 0.00486517 0 
2.11385 -4.36079 -0.760818 0.945195 0.290229 -0.149578 0 
1.90129 -2.01479 1.13542 0.86942 0.493956 0.0107733 0 
0.970688 -2.93016 -1.78111 -0.00223348 0.00221972 -0.999995 0 
2.00679 -3.76454 1.22475 0.84348 -0.446507 0.298619 0 
2.07298 -2.44041 1.55598 0.924395 0.381334 0.00880449 0 
-0.164047 -4.21855 -1.78664 -0.117269 -0.0506414 -0.991808 0 
2.05196 -5.83922 -1.77443 0.00313471 -0.00110739 -0.999995 0 
0.876175 -5.35152 -1.77821 0.00279712 -0.00143409 -0.999995 0 
1.97371 -2.16142 -0.418777 0.926356 0.376582 0.00714747 0 
2.21025 -2.95421 -1.12672 0.303722 -0.892209 -0.334238 0 
1.07133 -3.12288 -1.78227 -0.00351595 0.00318729 -0.999989 0 
2.43086 -3.31071 0.949387 0.973759 -0.209629 -0.0885977 0 
2.33748 -3.09972 2.02043 0.898312 -0.337558 -0.28123 0 
2.04692 -3.66686 -0.623276 0.641406 -0.603531 -0.473655 0 
2.05373 -2.39168 1.10542 0.925897 0.377768 0.00251313 0 
2.30507 -3.00432 0.710587 0.991478 0.128141 0.023469 0 
-0.016312 -4.79436 -1.64842 -0.726932 -0.246706 -0.640863 0 
2.33476 -3.22533 -0.244583 0.924489 -0.368419 -0.09792 0 
0.12587 -5.8839 2.35689 -0.917931 -0.396737 -0.0018483 0 
1.53255 -2.26979 -1.77705 -0.00870134 -0.00249952 -0.999959 0 
1.43971 -5.5175 -0.989059 0.575658 0.80797 -0.125707 0 
0.215744 -4.6086 -1.78215 0.000522548 -0.00265653 -0.999996 0 
2.18846 -3.34035 -0.429947 0.920085 -0.391287 0.0184082 0 
1.76631 -2.83479 -1.78072 0.0307803 -0.2049 -0.978299 0 
1.99495 -3.81783 1.04054 0.893209 -0.44964 0.00126994 0 
0.688156 -2.22194 -1.78029 -0.00217075 -0.00136151 -0.999997 0 
2.19597 -3.32017 0.68483 0.889699 -0.411463 0.197824 0 
0.144089 -5.30751 -1.48546 -0.825341 -0.465334 -0.319806 0 
1.43178 -4.76802 -1.78017 0.0006566 -0.000247344 -1 0 
1.84389 -1.87834 0.629379 0.922652 0.38562 0.00328255 0 
-0.01915 -5.27745 2.56639 -0.966399 -0.254706 -0.0346193 0 
0.430313 -6.59282 -1.77724 -0.185517 -0.168079 -0.96816 0 
1.88585 -4.0399 -1.12599 0.93983 0.337461 -0.0532841 0 
0.073868 -3.90956 -1.78291 0.000940317 0.00131962 -0.999999 0 
1.75597 -4.48055 -1.77943 0.211084 0.136389 -0.967906 0 
2.32393 -3.01585 -1.34911 0.893954 0.0120283 -0.447997 0 
1.75105 -5.04503 -1.77983 0.00251095 -0.00433549 -0.999987 0 
1.86772 -1.87331 -1.55141 0.781825 0.550841 -0.292103 0 
0.97081 -2.74312 -1.78062 0.00158038 -0.00113383 -0.999998 0 
2.17806 -3.71513 0.288742 0.866868 -0.493358 0.0716777 0 
1.4875 -2.69075 -1.78017 0.000779683 0.000334565 -1 0 
1.94368 -2.06169 -1.36726 0.927024 0.374772 0.0130925 0 
2.00319 -4.96818 -1.7802 0.00294985 -0.00511028 -0.999983 0 
0.963028 -3.72096 -1.78267 0.00194254 0.00363346 -0.999992 0 
0.171341 -3.47295 -1.782 0.00211688 0.00753553 -0.999969 0 
2.02657 -3.41576 1.60786 0.973297 -0.214253 -0.0823916 0 
1.72273 -4.65779 -1.78017 0.00315094 -0.000238083 -0.999995 0 
2.37724 -5.88777 -1.77437 0.00255597 -0.000943555 -0.999996 0 
2.37254 -3.14903 -0.103745 0.971852 -0.16368 -0.169448 0 
1.10524 -2.34837 -1.78145 0.00568473 0.00484862 -0.999972 0 
1.86943 -2.07286 -1.7809 0.519261 0.344556 -0.78208 0 
0.071365 -4.19243 -1.78673 0.000367007 0.000968494 -1 0 
1.72133 -3.48311 -1.49928 0.819095 -0.360374 -0.446334 0 
2.2187 -2.77632 -0.043106 0.924468 0.381251 0.00264702 0 
2.01207 -2.25102 -0.802048 0.925309 0.37912 0.00848024 0 
0.641769 -3.89946 -1.78548 -0.00244235 -0.000256662 -0.999997 0 
1.99489 -2.2509 1.45848 0.924258 0.38169 0.00777018 0 
2.33675 -3.08351 0.853622 0.960745 0.272051 0.0543821 0 
0.218277 -4.05281 -1.78551 -0.000264724 0.000463557 -1 0 
2.17726 -3.0959 -0.891922 0.612911 -0.613005 -0.498563 0 
0.216263 -4.89784 -1.78178 -0.263088 -0.0718363 -0.962094 0 
0.103836 -5.81801 2.96318 -0.918074 -0.396205 0.0127494 0 
0.139908 -5.13335 -1.57143 -0.778076 -0.408375 -0.477313 0 
0.023026 -5.65785 -0.331802 -0.977668 -0.209859 0.011135 0 
2.28981 -2.96129 1.39372 0.962125 0.196205 0.189262 0 
2.03722 -4.00032 0.233139 0.992357 -0.123389 0.00151849 0 
2.23586 -3.75978 -0.511795 0.778425 -0.62685 -0.0333728 0 
-0.105576 -5.09093 -0.413834 -0.910462 -0.413502 0.00860845 0 
2.06178 -2.39632 -0.231033 0.92863 0.370866 0.0102394 0 
2.36916 -3.17384 1.79964 0.688164 -0.702621 -0.180982 0 
1.95573 -3.77873 2.14635 0.859853 -0.474486 -0.188458 0 
0.07753 -5.77266 -0.938217 -0.974345 -0.218383 -0.0544074 0 
0.172195 -5.98476 2.6928 -0.917272 -0.398183 0.00793768 0 
2.16838 -3.71565 0.907364 0.833255 -0.552479 -0.0213015 0 
1.29344 -3.6281 -1.78215 0.00644839 -0.000789624 -0.999979 0 
2.28847 -2.96138 0.519547 0.938085 0.342315 0.0530864 0 
2.09392 -4.33409 2.02318 0.94284 0.332063 -0.0280582 0 
1.89964 -3.91417 1.95857 0.996728 0.00681765 -0.0805444 0 
0.062851 -5.73509 1.29719 -0.923722 -0.383057 0.00243643 0 
1.04088 -3.95677 -1.78273 -0.00163428 -0.006402 -0.999978 0 
2.10533 -3.29436 1.92375 0.890191 -0.396636 -0.224143 0 
0.783218 -1.97981 -1.78355 0.00322826 0.000351386 -0.999995 0 
-0.063339 -5.16774 1.24156 -0.868795 -0.493686 0.0383478 0 
2.19408 -3.53395 1.26991 0.983606 -0.0389867 0.176065 0 
0.915726 -1.65318 -1.77995 0.00294912 0.00486461 -0.999984 0 
1.90968 -2.01576 -0.233078 0.926751 0.375591 0.0079404 0 
-0.078903 -4.89763 -1.31789 -0.911291 -0.362857 -0.194639 0 
2.33974 -3.0609 -0.50563 0.992879 0.089263 0.078884 0 
2.16954 -2.67683 0.983444 0.926067 0.377324 0.00508396 0 
0.352646 -5.36897 -1.77977 -0.371116 0.0173821 -0.928424 0 
2.0522 -4.2162 -0.505386 0.947311 0.318382 0.0351545 0 
2.19106 -3.36171 -0.65004 0.826964 -0.361534 -0.430609 0 
1.68257 -6.27513 -1.7755 0.00101714 0.00302618 -0.999995 0 
1.76979 -1.88692 -1.78407 0.426497 0.101343 -0.898794 0 
2.04836 -5.60265 -1.77489 0.00179928 -0.00250894 -0.999995 0 
1.91054 -2.6963 -1.78279 0.161835 -0.0444128 -0.985818 0 
1.01292 -4.85075 -1.78175 0.00475658 -0.000341032 -0.999989 0 
-0.045242 -5.20933 0.62294 -0.854012 -0.520227 -0.00524788 0 
1.00877 -5.44792 -1.78099 0.0755638 -0.14066 -0.98717 0 
0.122269 -3.22639 -1.77892 0.000122964 0.000794401 -1 0 
1.15974 -5.56636 -1.44264 0.097734 0.989014 0.110901 0 
2.3557 -3.24248 1.08626 0.985889 -0.159761 0.0499961 0 
2.13621 -2.59148 1.11821 0.925703 0.378231 0.00386065 0 
1.94576 -2.06328 -1.55092 0.899413 0.389001 -0.199336 0 
2.00615 -4.00789 0.778275 0.997016 0.0746036 0.0198495 0 
-0.083603 -4.5825 -1.78395 -0.489301 -0.152735 -0.858636 0 
2.23653 -3.77367 0.709518 0.862006 -0.506348 -0.023588 0 
1.23003 -6.27266 -1.77593 0.000965435 -0.000780034 -0.999999 0 
1.91188 -4.42671 -1.77821 0.516376 0.12921 -0.846558 0 
2.09468 -2.9604 -1.26833 0.31389 -0.919332 -0.237281 0 
2.22136 -3.44328 0.151566 0.933441 -0.357619 -0.0282352 0 
0.077286 -5.77119 1.45824 -0.920559 -0.390563 0.00568452 0 
1.56294 -5.47499 -1.77751 0.017598 0.0617224 -0.997938 0 
-0.160355 -4.48189 -1.64723 -0.830388 -0.209108 -0.516459 0 
2.04005 -4.19289 -0.181931 0.974934 0.221547 -0.0205378 0 
-0.063858 -2.11229 -1.78358 0.0113832 0.00461928 -0.999925 0 
0.215958 -4.44569 -1.78355 0.0011074 -0.00502765 -0.999987 0 
1.82307 -3.82838 -1.23817 0.937095 0.15069 -0.314875 0 
0.202042 -6.05882 1.51555 -0.920211 -0.391388 0.00526423 0 
2.14436 -3.22993 -0.737991 0.648127 -0.39093 -0.653533 0 
-0.10878 -2.95186 -1.78188 0.000968534 -0.00383818 -0.999992 0 
0.076889 -5.77537 -0.619858 -0.916772 -0.399358 -0.00642261 0 
1.98702 -4.07759 0.369034 0.988534 0.149325 0.0224085 0 
0.86763 -4.56862 -1.78233 0.0059548 0.00347664 -0.999976 0 
2.18633 -2.68242 -0.628555 0.924767 0.380335 0.0122888 0 
2.26558 -3.51039 -0.246475 0.980393 -0.171753 0.0965945 0 
0.024704 -5.64491 1.09019 -0.982102 -0.183286 0.0433908 0 
2.04826 -3.52831 -0.805099 0.771278 -0.422487 -0.476062 0 
2.00865 -4.29524 -1.12651 0.913857 0.385398 -0.1278 0 
1.95622 -4.21083 -0.981186 0.916952 0.337287 -0.213159 0 
-0.176071 -4.74922 -0.936081 -0.89819 -0.412095 -0.153078 0 
-0.026108 -5.27232 -0.419571 -0.912514 -0.408908 0.0106278 0 
0.393875 -5.64622 -1.7784 -0.000914535 -0.00122857 -0.999999 0 
0.485458 -2.62413 -1.78066 0.00177743 -0.000970573 -0.999998 0 
0.171829 -2.25151 -1.78316 0.00818743 0.00794474 -0.999935 0 
1.87141 -1.92079 0.099594 0.925366 0.378962 0.00925656 0 
0.735825 -2.74529 -1.78209 -9.94962e-005 -0.00158801 -0.999999 0 
1.76915 -3.29726 -1.51216 0.685017 -0.195199 -0.70189 0 
0.24501 -6.3502 -1.77791 -0.270032 -0.0804319 -0.959486 0 
0.306351 -5.03789 -1.7823 -0.166616 -0.249367 -0.953968 0 
0.058884 -1.81572 -1.78236 0.000613904 0.00303988 -0.999995 0 
1.84004 -1.83556 -0.795761 0.924582 0.380882 0.0088202 0 
0.775742 -4.70436 -1.78209 0.00142229 -4.56814e-006 -0.999999 0 
1.6324 -5.15758 -1.77815 -0.0132799 -0.162527 -0.986615 0 
1.18855 -4.2336 -1.78239 -0.00109256 -0.00237612 -0.999997 0 
2.54186 -5.49849 -1.77443 0.00408296 -0.0023821 -0.999989 0 
-0.0056 -5.30537 0.23793 -0.972126 -0.234446 0.00254709 0 
0.203568 -6.05214 -1.69417 -0.622186 0.156076 -0.767154 0 
0.282913 -3.14674 -1.78194 0.00127433 0.000610322 -0.999999 0 
1.15425 -5.12413 -1.78044 0.00192868 -0.00525642 -0.999984 0 
-0.151108 -4.98988 2.5945 -0.946675 -0.321464 0.0216171 0 
0.02211 -3.05391 -1.78365 0.00200197 -0.00138395 -0.999997 0 
1.48857 -3.17293 -1.7838 0.115208 0.00679556 -0.993318 0 
1.87459 -1.92473 -0.656326 0.924863 0.380271 0.00480833 0 
2.38084 -3.24245 -0.477066 0.977241 -0.212102 0.00365976 0 
2.05791 -2.39278 0.035477 0.926696 0.37574 0.00731067 0 
2.19344 -3.72795 0.453537 0.820869 -0.548483 -0.159189 0 
0.357376 -2.88249 -1.78139 0.00403609 0.000845362 -0.999992 0 
2.08473 -4.3224 1.67271 0.937975 0.345618 -0.0274118 0 
2.18028 -2.68687 0.105209 0.92482 0.380356 0.00605615 0 
-0.155563 -4.87819 2.47472 -0.953518 -0.300333 0.0245478 0 
0.144211 -5.93395 1.18752 -0.922578 -0.38581 0.000625604 0 
2.02888 -4.19698 1.58131 0.952391 0.304097 0.0218134 0 
2.18279 -2.65547 -1.7809 0.730076 0.176697 -0.660127 0 
1.89372 -3.52635 -1.04658 0.768367 -0.598407 -0.226982 0 
0.645706 -4.1432 -1.78206 1.26659e-005 -0.00237177 -0.999997 0 
0.021286 -5.63326 2.71645 -0.960439 -0.276634 0.0320916 0 
0.535263 -5.0023 -1.78102 -0.000758206 -0.00317971 -0.999995 0 
0.687546 -5.37282 -1.78133 0.000478109 0.000837958 -1 0 
2.23393 -3.77104 1.09004 0.856345 -0.51133 0.07221 0 
1.95964 -3.00798 -1.18892 0.761279 -0.598366 -0.249825 0 
0.052902 -4.46932 -1.78252 -0.121675 -0.0359819 -0.991918 0 
-0.197372 -4.91603 2.26671 -0.957473 -0.287233 0.0272603 0 
0.682968 -5.56139 -1.78084 0.00176018 -0.00060273 -0.999998 0 
2.26204 -2.86195 -0.846542 0.972156 0.227954 -0.0543051 0 
0.233658 -6.65745 -1.59081 -0.185517 -0.168079 -0.96816 0 
1.3932 -2.13014 -1.77782 -0.00551253 -0.00597417 -0.999967 0 
2.02617 -4.18416 1.93159 0.934891 0.354587 -0.015713 0 
2.05418 -2.38878 1.27281 0.925136 0.379625 0.00274597 0 
2.14507 -3.31798 1.46693 0.933647 -0.294835 0.203411 0 
1.7314 -5.81013 -1.77678 -0.118968 -0.146252 -0.982068 0 
1.81822 -3.50285 -1.20955 0.840055 -0.422986 -0.339691 0 
0.262344 -3.89452 -1.78346 -3.04453e-005 0.00106781 -0.999999 0 
0.305283 -3.34135 -1.78346 -0.00287753 0.00479003 -0.999984 0 
2.19408 -3.69545 -0.689011 0.641406 -0.603531 -0.473655 0 
2.0186 -3.76408 -0.302261 0.842129 -0.525619 0.120592 0 
-0.11647 -5.03831 1.36287 -0.881039 -0.470674 0.0472897 0 
-0.19902 -4.89531 1.47514 -0.915936 -0.396075 0.0646952 0 
2.42946 -3.30159 0.582901 0.89018 -0.323153 0.321173 0 
1.76051 -3.19624 -1.64729 0.683205 -0.382141 -0.622253 0 
1.24931 -5.80107 -1.77724 0.0297532 0.282157 -0.958907 0 
1.47688 -5.67943 -1.09361 0.62291 0.77635 -0.0962477 0 
1.99532 -4.00142 2.12599 0.959886 0.101386 -0.261418 0 
0.301956 -6.8232 -1.62514 -0.179875 -0.217496 -0.959344 0 
1.81871 -1.82234 0.78157 0.89329 0.447172 0.0455057 0 
1.43632 -6.36501 -1.77763 0.00200144 0.000604106 -0.999998 0 
2.23497 -3.47346 0.760513 0.970974 -0.236903 -0.0329516 0 
2.14696 -3.68074 1.32802 0.892424 -0.353224 0.280735 0 
1.96818 -3.90666 2.25725 0.968129 -0.0872527 -0.234761 0 
1.91472 -3.88527 1.56264 0.988887 0.122859 0.0837088 0 
2.11586 -4.38078 0.477005 0.963465 0.267808 -0.00369268 0 
0.499069 -3.79704 -1.78056 -0.00122393 0.000876825 -0.999999 0 
1.81694 -6.175 -1.77623 0.00125284 -0.000280673 -0.999999 0 
0.028702 -5.65834 -0.789352 -0.981208 -0.173792 -0.0838304 0 
2.03951 -4.00401 0.068314 0.999847 0.0142354 -0.0102029 0 
0.359268 -4.32948 -1.78291 0.00300722 -0.00475227 -0.999984 0 
-0.07933 -5.13002 0.946304 -0.85748 -0.514109 -0.0204993 0 
1.25139 -2.55043 -1.78053 0.00342553 0.00331342 -0.999989 0 
2.0132 -3.86012 -0.653793 0.803626 -0.222532 -0.551965 0 
-0.17836 -4.9731 1.97334 -0.941196 -0.334425 -0.0480663 0 
-0.006851 -5.28642 0.852554 -0.944866 -0.325809 0.0328138 0 
2.03114 -2.2986 -1.04381 0.926754 0.375498 0.0112966 0 
0.171616 -2.98866 -1.78184 0.00271693 -0.00188375 -0.999995 0 
-0.082809 -5.06215 -0.892349 -0.905626 -0.37948 -0.189307 0 
2.33372 -5.37324 -1.77464 0.00208601 -0.00418615 -0.999989 0 
2.36751 -3.15037 0.557083 0.991387 -0.0612615 0.115754 0 
1.81282 -5.64943 -1.77635 0.00402717 -0.002578 -0.999989 0 
0.666061 -3.02855 -1.77928 0.000436948 -0.00170887 -0.999999 0 
-0.016495 -2.27083 -1.7813 0.00776706 0.00697381 -0.999946 0 
1.47444 -5.46181 -1.15706 -0.919969 0.377249 -0.106493 0 
2.00798 -2.25243 -0.175095 0.927703 0.3732 0.00941522 0 
1.9156 -2.0619 1.45287 0.894844 0.443159 0.053518 0 
2.00563 -4.00398 1.84325 0.993943 0.0461413 -0.0997439 0 
0.189133 -6.03124 0.04921 -0.914207 -0.405234 0.00322454 0 
0.499344 -3.43501 -1.78227 0.00402758 0.00333637 -0.999986 0 
0.475784 -6.23906 -1.77849 0.00197476 -0.00390321 -0.99999 0 
0.052841 -4.94435 -1.6266 -0.697583 -0.482118 -0.530038 0 
2.04201 -4.20985 0.573288 0.9743 0.224919 -0.0123058 0 
2.13063 -2.58156 1.47069 0.925691 0.37824 0.00551926 0 
1.86412 -2.2534 -1.78163 0.554567 0.271525 -0.786594 0 
1.84142 -3.73659 1.65385 0.926292 -0.335203 0.172109 0 
1.99864 -4.09495 -0.868027 0.91982 0.279662 -0.275174 0 
1.99922 -4.09001 -0.398727 0.983606 0.180319 0.00196298 0 
2.05132 -3.25575 -1.23189 0.995646 -0.0931826 0.00256357 0 
2.01924 -4.16548 1.10582 0.989236 0.142625 -0.032714 0 
2.07747 -2.40257 -1.3167 0.928448 0.371242 0.0128086 0 
2.24684 -2.85707 0.37236 0.926468 0.376252 0.00951804 0 
0.028244 -5.64739 1.65489 -0.967738 -0.250894 -0.0231546 0 
0.023148 -5.16371 -0.976791 -0.9015 -0.376852 -0.212795 0 
2.02156 -2.25209 -1.35927 0.928962 0.369866 0.0151098 0 
2.17216 -3.60448 1.11012 0.927882 -0.312438 0.203512 0 
0.525833 -5.74437 -1.78075 5.3481e-005 -0.00251345 -0.999997 0 
1.29945 -3.93581 -1.78123 0.00274466 -0.000179967 -0.999996 0 
0.021561 -5.64223 0.347427 -0.978019 -0.208248 0.0105533 0 
1.52559 -5.38078 -1.35927 -0.763334 0.64594 -0.00908415 0 
0.730759 -5.12797 -1.78032 0.000131274 -0.00411342 -0.999992 0 
0.006943 -5.36455 2.74303 -0.969406 -0.243414 -0.0316453 0 
0.853928 -6.08089 -1.77824 0.00209206 -0.0051238 -0.999985 0 
0.830185 -1.80385 -1.78502 0.00569816 0.00386952 -0.999976 0 
0.445297 -5.18498 -1.77919 -0.0932631 -0.0223886 -0.99539 0 
1.72243 -3.73463 -1.47383 0.848985 0.00516453 -0.528391 0 
1.06447 -2.08916 -1.77858 0.00643681 0.00217014 -0.999977 0 
0.671829 -1.84233 -1.77794 0.0038792 0.000364413 -0.999992 0 
1.69655 -2.25294 -1.78007 0.0482309 0.0363161 -0.998176 0 
1.83015 -3.90974 -1.40236 0.906088 0.348403 -0.240041 0 
2.15126 -2.59377 -0.844376 0.924851 0.380275 0.00644325 0 
0.821945 -3.39204 -1.78072 -0.00185177 0.00306284 -0.999994 0 
-0.018753 -5.28301 2.36516 -0.965056 -0.261829 -0.0105801 0 
0.211014 -6.07182 2.26433 -0.917156 -0.398528 0.000209037 0 
1.86824 -1.94414 1.32423 0.860321 0.50633 0.0589662 0 
2.00359 -3.79594 -0.462479 0.913562 -0.371153 -0.166287 0 
0.03157 -5.65547 2.33086 -0.96363 -0.266929 -0.012871 0 
1.17961 -4.94563 -1.78032 0.0026177 -0.000677294 -0.999996 0 
1.48256 -5.63698 -1.77711 -0.121803 0.0339531 -0.991973 0 
1.88927 -5.85561 -1.77531 0.00269802 -0.00103575 -0.999996 0 
-0.074234 -5.15447 2.45384 -0.922578 -0.385689 0.00964595 0 
0.378952 -3.68605 -1.78328 0.00410155 -0.000289828 -0.999992 0 
2.12209 -2.53929 -0.136703 0.925683 0.378221 0.00775924 0 
0.546249 -2.86531 -1.78215 0.000925757 -0.00145038 -0.999999 0 
0.138809 -5.91539 -1.12947 -0.917046 -0.398779 -0.00120989 0 
2.10161 -4.36574 1.46098 0.957471 0.287903 0.0190151 0 
1.3398 -4.90465 -1.78023 0.00231762 -0.000438709 -0.999997 0 
0.81868 -2.52208 -1.78166 0.00039864 0.00108904 -0.999999 0 
0.534897 -2.28178 -1.78163 0.000157742 0.00146369 -0.999999 0 
2.4995 -5.77028 -1.77412 0.00347838 -0.00215138 -0.999992 0 
0.018051 -5.62206 2.00484 -0.969819 -0.24185 0.0309699 0 
1.01076 -3.29302 -1.78264 -0.0036007 0.0030497 -0.999989 0 
0.230789 -4.22938 -1.78386 0.00308608 -0.000654962 -0.999995 0 
0.14769 -5.93019 1.84059 -0.919376 -0.393377 0.00145825 0 
0.149765 -5.91872 3.08385 -0.918074 -0.396205 0.0127493 0 
2.20143 -3.29771 0.52327 0.866265 -0.49406 -0.0740913 0 
1.20583 -1.78767 -1.77843 -0.00122753 -0.00225461 -0.999997 0 
1.07478 -5.89235 -1.7776 -0.0140798 0.113496 -0.993439 0 
2.09047 -3.19859 1.59178 0.789085 -0.591944 0.164156 0 
0.387772 -4.58873 -1.783 -0.00105992 -0.00359742 -0.999993 0 
2.33611 -3.06212 -0.323654 0.99221 0.121834 0.0259863 0 
0.176773 -5.98344 2.8622 -0.916784 -0.399245 0.010515 0 
0.152145 -5.93889 2.18034 -0.918705 -0.394939 0.00184009 0 
1.10524 -5.65688 -1.62209 0.421984 0.457016 -0.782985 0 
-0.198532 -4.99818 1.17949 -0.853155 -0.518404 0.0581665 0 
1.15434 -3.81261 -1.78325 0.00231243 -0.000248212 -0.999997 0 
2.0616 -4.26161 0.977493 0.977138 0.209786 -0.0345203 0 
1.34386 -5.52696 -0.840714 0.0539218 0.998528 -0.00585573 0 
2.19307 -3.28999 0.262009 0.929639 -0.355801 -0.0958017 0 
1.09468 -6.17949 -1.77754 0.00449195 -0.0022289 -0.999987 0 
1.29182 -2.34734 -1.77702 0.00167603 0.0062918 -0.999979 0 
-0.06813 -3.9991 -1.77971 0.000746911 0.00184061 -0.999998 0 
1.53313 -3.74028 -1.78093 0.157869 0.120701 -0.980055 0 
2.18312 -3.36897 1.03404 0.905825 -0.355565 0.230338 0 
0.876846 -5.56175 -1.77898 0.11247 -0.119314 -0.986466 0 
-0.019119 -5.27513 0.43541 -0.88702 -0.461572 -0.0121358 0 
0.108719 -5.84401 -1.46315 -0.941263 -0.23297 -0.244435 0 
2.3326 -5.61345 -1.77544 0.00268735 -0.00214538 -0.999994 0 
1.85451 -1.87303 -0.460403 0.923138 0.384397 0.00740898 0 
1.82634 -1.82518 0.22554 0.924376 0.38136 0.00963742 0 
2.00691 -3.85063 -0.136673 0.886383 -0.462643 0.0169549 0 
0.021652 -5.63805 2.55254 -0.976928 -0.213257 -0.0115025 0 
2.21672 -5.92702 -1.77422 0.00113817 -0.000668985 -0.999999 0 
0.058365 -5.20335 -1.17897 -0.909406 -0.405905 -0.0906769 0 
1.58098 -4.99376 -1.78001 0.00284212 -0.00177828 -0.999994 0 
2.12376 -4.38225 -0.590744 0.95918 0.282117 -0.0195772 0 
2.22286 -2.78029 -0.370895 0.924665 0.380611 0.0114127 0 
1.90929 -2.03291 0.959793 0.890697 0.45387 0.0257238 0 
0.406937 -1.79152 -1.78392 -0.000302251 -0.0011724 -0.999999 0 
2.29292 -2.98207 1.75096 0.979857 -0.0917881 -0.177358 0 
2.1913 -3.14943 1.86024 0.661095 -0.684625 -0.30699 0 
1.64632 -5.66124 -1.77608 -0.0899775 -0.185926 -0.978435 0 
0.827194 -4.99507 -1.7827 0.00106885 -0.00346243 -0.999994 0 
2.0103 -3.19768 -0.893478 0.925542 -0.228238 -0.302125 0 
1.38258 -5.61891 -1.55037 -0.180821 0.957693 0.223893 0 
0.688461 -5.72719 -1.78062 -0.000419906 -0.000538383 -1 0 
-0.152298 -4.82985 1.65507 -0.938474 -0.34532 -0.00448583 0 
1.79826 -5.28206 -1.77745 -0.107808 -0.0546228 -0.99267 0 
2.24382 -2.85512 0.884171 0.926517 0.37623 0.00412499 0 
0.080704 -2.57707 -1.78365 0.00236771 -0.00184998 -0.999996 0 
1.91081 -3.95583 -0.893875 0.890329 0.244691 -0.383981 0 
0.031693 -3.38692 -1.78255 0.00299287 0.00348853 -0.999989 0 
1.90633 -3.66664 -1.13213 0.949665 -0.217474 0.225481 0 
1.98058 -3.11873 -1.41103 0.784023 -0.132575 -0.606409 0 
1.95268 -2.11241 -0.654709 0.924863 0.380271 0.00480834 0 
2.33498 -3.24568 1.9428 0.739197 -0.581462 -0.339838 0 
1.4355 -2.42464 -1.77885 -0.000662533 0.00258175 -0.999996 0 
1.96248 -2.15669 0.751419 0.92404 0.382284 0.00282661 0 
2.19331 -2.72411 0.79924 0.926432 0.376459 0.00165332 0 
1.39448 -5.536 -0.606796 0.0539218 0.998528 -0.00585573 0 
-0.15831 -4.72066 -1.34715 -0.916728 -0.352853 -0.187362 0 
1.08586 -6.41206 -1.77788 0.000274864 -0.00413615 -0.999991 0 
1.61635 -2.48863 -1.78117 -0.00696319 0.00276754 -0.999972 0 
-0.101761 -3.49422 -1.78444 0.00150571 0.00698202 -0.999975 0 
1.576 -4.58662 -1.77977 0.00393078 -0.00056877 -0.999992 0 
2.09981 -2.49266 0.254562 0.923844 0.382769 0.000960715 0 
-0.150497 -4.98808 0.29039 -0.88992 -0.455593 -0.0218417 0 
0.597397 -6.3651 -1.77675 0.00317549 -0.00447454 -0.999985 0 
1.95219 -5.1237 -1.77663 0.00303173 -0.00532658 -0.999981 0 
-0.041946 -5.21745 1.08433 -0.872151 -0.488398 0.0286208 0 
2.11583 -4.38203 0.724319 0.943312 0.331711 0.0113896 0 
-0.202316 -5.00755 0.799484 -0.814919 -0.579404 -0.0140528 0 
1.24733 -4.50334 -1.78182 -0.00108847 -0.000213243 -0.999999 0 
1.10347 -1.63698 -1.78005 0.0044172 0.00408233 -0.999982 0 
2.2559 -2.83296 -1.2697 0.942286 0.273738 -0.192782 0 
1.95933 -2.14366 0.069046 0.927842 0.37284 0.00998371 0 
0.114395 -5.85481 0.557297 -0.917536 -0.397612 -0.00574898 0 
1.985 -4.05125 -0.566269 0.991441 0.119249 -0.0531462 0 
2.25435 -3.51097 0.949478 0.957155 -0.285817 0.0465189 0 
2.19255 -3.38481 -0.119858 0.862637 -0.478172 -0.164955 0 
0.688431 -4.85558 -1.78206 -0.000819334 -0.00318138 -0.999995 0 
0.194901 -5.22765 -1.70146 -0.68561 -0.154661 -0.71135 0 
0.434555 -6.40599 -1.77876 0.00187374 -0.00502602 -0.999986 0 
-0.126816 -5.03468 2.35625 -0.944942 -0.327222 -0.00311182 0 
0.169113 -5.98805 -0.547012 -0.914481 -0.404619 -0.00276089 0 
0.0327 -5.6624 1.81911 -0.978933 -0.203975 -0.00922524 0 
1.99522 -4.01503 -0.088882 0.999113 0.0315575 -0.0278968 0 
-0.0634 -2.65568 -1.78276 0.00453722 -0.00043441 -0.99999 0 
0.203415 -6.05839 -1.52296 -0.945847 -0.195233 -0.259339 0 
1.31712 -5.57677 -1.08287 0.62291 0.77635 -0.0962477 0 
2.04079 -4.01085 -0.714035 0.984883 0.115528 -0.12907 0 
2.19356 -3.72594 -0.027786 0.758219 -0.65126 0.0310534 0 
2.10194 -2.91701 -1.64784 0.663103 -0.614493 -0.427426 0 
1.00407 -5.04137 -1.78084 0.00293946 -0.00642172 -0.999975 0 
0.012833 -5.35808 2.058 -0.976432 -0.213795 0.0295363 0 
0.600693 -6.70708 -1.77553 -0.040457 -0.142229 -0.989007 0 
0.4991 -4.24538 -1.78328 0.00273698 0.000867207 -0.999996 0 
0.265274 -2.68007 -1.7813 0.00222245 -0.00423328 -0.999989 0 
1.6078 -3.56874 -1.77916 0.584667 -0.346371 -0.733615 0 
-0.0392 -5.22697 1.82954 -0.905714 -0.42358 -0.0161885 0 
0.622635 -3.18654 -1.78133 0.00179298 0.000898251 -0.999998 0 
2.04134 -2.34798 0.732925 0.925457 0.378846 0.00233462 0 
0.670914 -4.35667 -1.78297 0.00685915 0.00350253 -0.99997 0 
2.16472 -3.58473 -0.514664 0.960039 -0.256705 -0.111483 0 
1.79765 -4.06773 -1.54805 0.792431 0.378136 -0.478609 0 
2.1924 -2.72652 0.485733 0.92562 0.378367 0.00817239 0 
1.60017 -1.59377 -1.78133 -0.00915105 0.0017893 -0.999957 0 
1.40654 -5.41936 -1.77876 0.129188 -0.289663 -0.94837 0 
2.1472 -4.88509 -1.77812 0.00294985 -0.00511028 -0.999983 0 
0.30983 -4.75713 -1.7823 0.00233155 -0.00210589 -0.999995 0 
1.66972 -1.69066 1.23406 0.833436 0.547955 0.0716206 0 
1.77116 -4.85219 -1.7791 0.00207278 -0.00233035 -0.999995 0 
0.01915 -5.35637 1.15059 -0.967538 -0.252724 0.000349149 0 
1.90288 -2.01448 0.529678 0.923265 0.384125 0.00539917 0 
2.05376 -2.38167 0.543991 0.926037 0.377434 0.000363609 0 
0.311569 -6.19112 -1.77885 -0.303202 0.110945 -0.946446 0 
0.64061 -1.66655 -1.77998 -0.00336503 0.0113182 -0.99993 0 
2.00807 -2.21388 -1.53255 0.912411 0.369646 -0.175694 0 
1.64864 -4.14305 -1.78102 0.183002 0.115389 -0.976317 0 
1.7299 -3.88698 -1.53279 0.789382 0.3997 -0.465957 0 
2.18904 -2.72612 1.52239 0.924808 0.380375 0.00679487 0 
2.3073 -3.01439 1.21477 0.983507 0.133236 0.122321 0 
2.11626 -2.53316 0.094894 0.923693 0.383119 0.00336023 0 
2.0489 -4.34499 -0.923416 0.951711 0.264236 -0.156284 0 
1.86528 -1.87166 -1.30782 0.891114 0.450654 -0.0531564 0 
0.022598 -5.64799 -0.137802 -0.974243 -0.225378 0.00740388 0 
0.169571 -2.81856 -1.7809 0.00377857 -0.000914 -0.999992 0 
2.09276 -3.10515 -1.03206 0.557621 -0.784175 -0.272264 0 
1.32384 -3.17198 -1.78194 0.000298902 0.00431777 -0.999991 0 
0.594894 -2.06285 -1.78374 -0.00379138 -0.00508881 -0.99998 0 
0.009384 -5.35048 -0.569778 -0.966548 -0.244936 -0.0760956 0 
-0.086655 -5.12056 0.431107 -0.88702 -0.461572 -0.0121357 0 
-0.064194 -5.16466 1.67833 -0.941271 -0.33741 -0.0127583 0 
2.2451 -2.86546 1.89448 0.983852 0.175502 0.0351492 0 
0.207016 -6.0717 1.75282 -0.919513 -0.39304 0.00385384 0 
1.94966 -5.47279 -1.77617 0.00292487 -0.00267595 -0.999992 0 
2.05055 -3.71367 0.185013 0.880152 -0.467251 -0.0837154 0 
0.128769 -5.88866 -1.29311 -0.9171 -0.398654 -0.00119032 0 
2.08446 -3.70024 -0.154861 0.736663 -0.673648 0.059372 0 
0.400772 -4.89827 -1.78148 0.00355393 -0.00399481 -0.999986 0 
2.33714 -3.04423 -1.18254 0.725551 -0.637355 -0.259525 0 
1.44106 -4.38142 -1.78038 0.00497175 -0.00212895 -0.999985 0 
2.19917 -2.72481 0.26442 0.924922 0.380036 0.00959122 0 
1.7231 -2.66914 -1.77968 -0.00389443 -0.00465792 -0.999982 0 
0.205063 -6.06914 0.24202 -0.916071 -0.401007 0.00265215 0 
0.966843 -5.70128 -1.77946 0.0916363 0.0466586 -0.994699 0 
1.38835 -5.54341 -1.40419 -0.477206 0.878174 0.0329299 0 
1.72359 -5.51219 -1.77647 -0.127953 0.106659 -0.986028 0 
2.13927 -2.55104 -1.37373 0.926087 0.377035 0.0143686 0 
-0.115189 -3.80919 -1.78404 0.001993 0.000733808 -0.999998 0 
1.01646 -2.53548 -1.77971 0.00377666 0.00213762 -0.999991 0 
0.013229 -5.37544 -0.279312 -0.979196 -0.200773 -0.0294318 0 
2.1816 -3.71425 1.89201 0.905823 -0.396661 -0.148808 0 
2.07765 -3.57011 1.70039 0.700631 -0.697948 -0.148272 0 
2.17354 -3.18385 1.36958 0.839875 -0.394712 0.372575 0 
-0.081558 -5.12938 2.03444 -0.916583 -0.39982 -0.00442194 0 
1.51064 -5.74886 -1.30897 0.918263 0.383377 0.0990767 0 
0.205765 -6.06621 -0.132736 -0.912753 -0.408504 0.00254004 0 
2.0529 -4.23052 0.224472 0.966279 0.254163 0.041305 0 
0.116898 -5.03517 -1.78334 -0.371606 -0.192986 -0.908111 0 
0.359634 -3.52159 -1.78435 0.00482758 0.000124548 -0.999988 0 
-0.053024 -3.24391 -1.78066 0.00110425 0.00202079 -0.999997 0 
0.054764 -5.71471 0.491043 -0.916364 -0.40033 -0.00360541 0 
2.07121 -2.39699 -0.847305 0.92585 0.377816 0.00758557 0 
-0.084488 -5.11555 1.50798 -0.925055 -0.378551 0.0311653 0 
1.02229 -5.22584 -1.78041 0.00430777 -0.00468104 -0.99998 0 
1.62959 -6.11714 -1.7755 -0.143304 0.220428 -0.964819 0 
0.075821 -5.76259 2.1096 -0.920825 -0.389976 0.000201602 0 
1.61583 -3.66942 -1.64796 0.727067 -0.0454272 -0.685063 0 
0.529007 -5.32887 -1.78111 -0.000153833 -0.00157217 -0.999999 0 
1.42775 -3.00267 -1.7802 0.00161143 0.00542685 -0.999984 0 
2.10591 -4.34724 -0.204605 0.963142 0.268656 0.0134876 0 
2.22237 -5.73616 -1.77458 0.00143969 -0.00199509 -0.999997 0 
-0.042404 -5.22643 -0.818222 -0.898128 -0.392329 -0.198605 0 
-0.175156 -4.75526 2.36806 -0.957473 -0.287233 0.0272603 0 
1.89949 -2.01146 0.710495 0.922718 0.385473 0.00164781 0 
1.99028 -2.22667 0.311111 0.92564 0.378337 0.00720736 0 
1.87209 -4.26497 -1.7798 0.752565 0.256712 -0.60642 0 
0.641891 -6.07069 -1.77907 0.000452585 -0.00582251 -0.999983 0 
2.08012 -2.41438 -1.15306 0.927347 0.373956 0.0136088 0 
-0.016739 -5.25438 1.4492 -0.915997 -0.401186 0.000262059 0 
2.21605 -5.48634 -1.7765 0.00166512 -0.0029778 -0.999994 0 
2.30165 -2.99571 0.986832 0.966337 0.256942 0.0132005 0 
0.071182 -3.73967 -1.78502 0.00163369 -0.00365135 -0.999992 0 
0.138229 -5.91341 -0.880508 -0.917489 -0.397748 -0.0032739 0 
1.36607 -5.55415 -1.23976 -0.394829 0.884406 0.248869 0 
0.023392 -5.65385 -0.511612 -0.978538 -0.206064 0.000486309 0 
2.25179 -2.86534 -1.69215 0.833083 -0.48124 -0.27273 0 
1.73198 -3.29207 -1.78111 0.804077 -0.109281 -0.584395 0 
1.99864 -4.12416 1.35277 0.962819 0.249079 0.104588 0 
0.668259 -2.58501 -1.78133 0.00205764 -2.23387e-005 -0.999998 0 
2.01387 -2.51216 -1.78206 0.538024 0.267353 -0.799407 0 
-0.115768 -4.3745 -1.78355 -0.125131 -0.0384653 -0.991394 0 
0.526688 -5.49565 -1.7802 -0.00185102 0.000356586 -0.999998 0 
-0.026688 -5.04509 -1.42528 -0.885463 -0.386589 -0.257885 0 
0.025284 -5.65331 0.829697 -0.970967 -0.239204 -0.00224704 0 
1.48869 -1.72383 -1.78127 -0.00915104 0.0017893 -0.999957 0 
0.141708 -5.92323 -0.085159 -0.915174 -0.403046 0.00328267 0 
0.137985 -5.90819 1.52464 -0.92129 -0.388818 0.00667456 0 
2.01195 -3.88026 0.676804 0.945385 -0.318925 -0.0673322 0 
1.9576 -3.89977 -1.29771 0.910456 0.309364 -0.274526 0 
1.90779 -3.86388 1.73582 0.991483 -0.130058 -0.00682309 0 
-0.177994 -4.8463 2.07936 -0.970787 -0.239762 -0.00933106 0 
1.91182 -4.29866 -1.54149 0.801339 0.350971 -0.484433 0 
1.44994 -3.52718 -1.77977 0.18521 0.000873521 -0.982699 0 
0.203262 -6.06755 -1.317 -0.915651 -0.401961 -0.00324827 0 
2.0182 -4.16008 2.17485 0.975021 0.0824683 -0.206234 0 
1.9803 -2.20705 1.10976 0.925384 0.378987 0.00571871 0 
-0.169418 -4.9818 -0.518387 -0.923958 -0.378329 -0.0562873 0 
2.05022 -4.21086 -0.739273 0.934525 0.315072 -0.165504 0 
1.87825 -1.9276 -0.925644 0.92603 0.377179 0.0142945 0 
2.114 -4.37599 0.30513 0.955635 0.29453 0.00366898 0 
2.02876 -4.18327 0.735703 0.978962 0.179053 0.0978438 0 
1.1389 -3.39665 -1.78245 0.000135624 -0.00162035 -0.999999 0 
1.29744 -1.63664 -1.77541 -0.0065694 0.000527807 -0.999978 0 
1.25148 -6.44078 -1.77611 0.00168984 -0.000582922 -0.999998 0 
1.74342 -1.82277 1.29668 0.850979 0.524048 0.0347634 0 
1.0927 -4.66426 -1.78117 0.00288579 -0.00195985 -0.999994 0 
1.96947 -2.17955 0.913223 0.92541 0.378916 0.00621224 0 
0.090958 -5.33009 -1.32509 -0.893125 -0.406202 -0.193204 0 
0.088058 -5.79942 1.11015 -0.921943 -0.387325 0.00023644 0 
2.05254 -4.23067 0.39003 0.974283 0.223998 -0.0244513 0 
0.204147 -6.06581 0.613266 -0.919183 -0.393806 -0.0043951 0 
-0.111435 -5.06313 0.669968 -0.847352 -0.531027 0.00235983 0 
2.02727 -4.16771 0.05101 0.967758 0.251842 0.00444931 0 
2.05675 -2.34538 -1.6226 0.881159 0.386076 -0.272954 0 
2.19936 -3.19572 2.0229 0.876705 -0.373844 -0.302704 0 
2.22804 -2.77452 -1.10933 0.968605 0.217569 -0.120285 0 
0.829208 -4.40413 -1.78221 0.00829886 0.0025244 -0.999962 0 
0.052597 -4.87929 -1.78291 -0.558194 -0.118126 -0.821258 0 
1.37053 -3.77595 -1.782 0.132387 0.00900302 -0.991157 0 
2.17274 -3.54778 0.26857 0.976402 -0.189563 -0.103469 0 
2.07137 -4.29268 1.29955 0.976382 0.204406 0.0699752 0 
1.2122 -5.58653 -1.28911 0.309306 0.920141 -0.240147 0 
0.019547 -5.38023 0.987839 -0.979643 -0.196249 0.0422733 0 
2.19417 -3.30739 -0.267227 0.929238 -0.339839 0.145003 0 
1.63039 -5.32146 -1.77821 -0.00113142 -0.0905042 -0.995895 0 
2.26472 -3.50838 -0.410904 0.987144 -0.143812 -0.0697453 0 
